<svg width="38" height="39" fill="none" xmlns="http://www.w3.org/2000/svg"><path fill-rule="evenodd" clip-rule="evenodd" d="M37 19.122c0 9.941-8.059 18-18 18s-18-8.059-18-18c0-9.94 8.059-18 18-18s18 8.06 18 18zm-18-19c10.493 0 19 8.507 19 19 0 10.494-8.507 19-19 19s-19-8.506-19-19c0-10.493 8.507-19 19-19z" fill="#fff"/><g clip-path="url(#clip0)"><path d="M25.927 19.756v.001l-2.99 2.976a.572.572 0 01-.808-.811l2.008-1.998h-12.12a.572.572 0 010-1.145h12.12l-2.008-1.998a.572.572 0 01.807-.811l2.99 2.976h.001a.573.573 0 010 .81z" fill="#fff"/></g><defs><clipPath id="clip0"><path fill="#fff" transform="matrix(1 0 0 -1 11.444 26.677)" d="M0 0h14.651v14.651H0z"/></clipPath></defs></svg>