<svg width="64" height="64" fill="none" xmlns="http://www.w3.org/2000/svg"><path fill-rule="evenodd" clip-rule="evenodd" d="M1 32c0 17.12 13.88 31 31 31 17.12 0 31-13.88 31-31C63 14.88 49.12 1 32 1 14.88 1 1 14.88 1 32zM32 0C14.327 0 0 14.327 0 32c0 17.673 14.327 32 32 32 17.673 0 32-14.327 32-32C64 14.327 49.673 0 32 0z" fill="#fff"/><g clip-path="url(#clip0)"><path d="M39.774 23.19l-6.912.03a.938.938 0 00.008 1.876l4.64-.02L23.5 39.141a.937.937 0 101.328 1.324l14.01-14.068-.001 4.64a.937.937 0 101.875.001l.003-6.91v-.002a.938.938 0 00-.94-.937z" fill="#fff"/></g><defs><clipPath id="clip0"><path fill="#fff" transform="rotate(-45.115 46.018 -2.055)" d="M0 0h24v24H0z"/></clipPath></defs></svg>