<svg width="26" height="26" fill="none" xmlns="http://www.w3.org/2000/svg"><path d="M18.305 9.192a.937.937 0 010 1.326l-6.29 6.29a.938.938 0 01-1.326 0l-2.994-2.995a.937.937 0 111.326-1.325l2.331 2.331 5.627-5.627a.938.938 0 011.326 0zM25 13c0 6.633-5.368 12-12 12-6.633 0-12-5.368-12-12C1 6.367 6.368 1 13 1c6.633 0 12 5.368 12 12zm-1.875 0A10.12 10.12 0 0013 2.875 10.12 10.12 0 002.875 13 10.12 10.12 0 0013 23.125 10.12 10.12 0 0023.125 13z" fill="#198580"/><path fill-rule="evenodd" clip-rule="evenodd" d="M16.979 9.193a.938.938 0 011.326 1.325l-6.29 6.29a.938.938 0 01-1.325 0l-2.994-2.994a.937.937 0 111.325-1.326l2.331 2.331 5.627-5.626zm-5.627 5.202l5.415-5.415a1.238 1.238 0 011.75 1.75l-6.29 6.29a1.238 1.238 0 01-1.75 0l-2.993-2.994a1.237 1.237 0 111.75-1.75l2.118 2.119zM25.3 13c0 6.799-5.502 12.3-12.3 12.3C6.202 25.3.7 19.798.7 13 .7 6.202 6.202.7 13 .7 19.8.7 25.3 6.202 25.3 13zm-2.475 0A9.82 9.82 0 0013 3.175 9.82 9.82 0 003.175 13 9.82 9.82 0 0013 22.825 9.82 9.82 0 0022.825 13zM13 25c6.632 0 12-5.367 12-12 0-6.632-5.367-12-12-12C6.368 1 1 6.367 1 13c0 6.632 5.367 12 12 12zm0-22.125A10.12 10.12 0 0123.125 13 10.12 10.12 0 0113 23.125 10.12 10.12 0 012.875 13 10.12 10.12 0 0113 2.875z" fill="#198580"/></svg>