<svg width="33" height="33" fill="none" xmlns="http://www.w3.org/2000/svg"><path fill-rule="evenodd" clip-rule="evenodd" d="M31.895 16.448c0 8.531-6.916 15.448-15.447 15.448C7.916 31.896 1 24.979 1 16.448 1 7.916 7.916 1 16.448 1c8.531 0 15.447 6.916 15.447 15.448zM16.448 0c9.084 0 16.447 7.364 16.447 16.448s-7.363 16.448-16.447 16.448S0 25.532 0 16.448 7.364 0 16.448 0z" fill="#fff"/><path fill-rule="evenodd" clip-rule="evenodd" d="M13.617 10.81a.5.5 0 01.516.03l8.224 5.627a.5.5 0 010 .826l-8.224 5.626a.5.5 0 01-.782-.412V11.253a.5.5 0 01.266-.442zm.734 1.39v9.359l6.838-4.68-6.838-4.678z" fill="#fff"/></svg>